<svg width="783" height="668" viewBox="0 0 783 668" fill="none" xmlns="http://www.w3.org/2000/svg">
<path d="M75 347V525H257" stroke="#090A09" stroke-width="8"/>
<path d="M708 346L708 168L526 168" stroke="#090A09" stroke-width="8"/>
<path d="M124.12 306L74.84 194H92.12L137.4 297.36H127.48L173.08 194H189.08L139.96 306H124.12ZM203.363 306V194H219.363V306H203.363ZM252.894 306V194H296.574C306.387 194 314.76 195.547 321.694 198.64C328.627 201.733 333.96 206.213 337.694 212.08C341.427 217.947 343.294 224.933 343.294 233.04C343.294 241.147 341.427 248.133 337.694 254C333.96 259.76 328.627 264.187 321.694 267.28C314.76 270.373 306.387 271.92 296.574 271.92H261.694L268.894 264.56V306H252.894ZM327.774 306L299.294 265.36H316.414L345.214 306H327.774ZM268.894 266.16L261.694 258.32H296.094C306.334 258.32 314.067 256.133 319.294 251.76C324.627 247.28 327.294 241.04 327.294 233.04C327.294 225.04 324.627 218.853 319.294 214.48C314.067 210.107 306.334 207.92 296.094 207.92H261.694L268.894 199.92V266.16ZM389.821 306V207.92H351.421V194H444.061V207.92H405.661V306H389.821ZM505.856 307.28C491.136 307.28 479.563 303.067 471.136 294.64C462.71 286.213 458.496 273.893 458.496 257.68V194H474.496V257.04C474.496 269.52 477.216 278.64 482.656 284.4C488.203 290.16 495.99 293.04 506.016 293.04C516.15 293.04 523.936 290.16 529.376 284.4C534.923 278.64 537.696 269.52 537.696 257.04V194H553.216V257.68C553.216 273.893 549.003 286.213 540.576 294.64C532.256 303.067 520.683 307.28 505.856 307.28Z" fill="#090A09"/>
<path d="M381.559 478L432.279 366H448.119L498.999 478H482.199L436.919 374.96H443.319L398.039 478H381.559ZM403.159 450L407.479 437.2H470.519L475.159 450H403.159ZM515.706 478V366H559.386C569.2 366 577.573 367.547 584.506 370.64C591.44 373.733 596.773 378.213 600.506 384.08C604.24 389.947 606.106 396.933 606.106 405.04C606.106 413.147 604.24 420.133 600.506 426C596.773 431.76 591.44 436.187 584.506 439.28C577.573 442.373 569.2 443.92 559.386 443.92H524.506L531.706 436.56V478H515.706ZM590.586 478L562.106 437.36H579.226L608.026 478H590.586ZM531.706 438.16L524.506 430.32H558.906C569.146 430.32 576.88 428.133 582.106 423.76C587.44 419.28 590.106 413.04 590.106 405.04C590.106 397.04 587.44 390.853 582.106 386.48C576.88 382.107 569.146 379.92 558.906 379.92H524.506L531.706 371.92V438.16ZM652.634 478V379.92H614.234V366H706.874V379.92H668.474V478H652.634Z" fill="#800020"/>
</svg>
