<svg width="60" height="60" viewBox="0 0 60 60" fill="none" xmlns="http://www.w3.org/2000/svg">
<path d="M16.7272 40.7265C16.0242 41.4295 16.0242 42.569 16.7272 43.2719C17.4301 43.9749 18.5698 43.9749 19.2727 43.2719L16.7272 40.7265ZM31.2727 31.2719C31.9756 30.569 31.9756 29.4295 31.2727 28.7265C30.5697 28.0235 29.4302 28.0235 28.7272 28.7265L31.2727 31.2719ZM28.7272 28.7265C28.0243 29.4295 28.0243 30.569 28.7272 31.2719C29.4302 31.9749 30.5697 31.9749 31.2727 31.2719L28.7272 28.7265ZM43.2727 19.272C43.9756 18.5691 43.9756 17.4294 43.2727 16.7264C42.5697 16.0235 41.4302 16.0235 40.7272 16.7264L43.2727 19.272ZM31.2727 28.7265C30.5697 28.0235 29.4302 28.0235 28.7272 28.7265C28.0243 29.4295 28.0243 30.569 28.7272 31.2719L31.2727 28.7265ZM40.7272 43.2719C41.4302 43.9749 42.5697 43.9749 43.2727 43.2719C43.9756 42.569 43.9756 41.4295 43.2727 40.7265L40.7272 43.2719ZM28.7272 31.2719C29.4302 31.9749 30.5697 31.9749 31.2727 31.2719C31.9756 30.569 31.9756 29.4295 31.2727 28.7265L28.7272 31.2719ZM19.2727 16.7264C18.5698 16.0235 17.4301 16.0235 16.7272 16.7264C16.0242 17.4294 16.0242 18.5691 16.7272 19.272L19.2727 16.7264ZM19.2727 43.2719L31.2727 31.2719L28.7272 28.7265L16.7272 40.7265L19.2727 43.2719ZM31.2727 31.2719L43.2727 19.272L40.7272 16.7264L28.7272 28.7265L31.2727 31.2719ZM28.7272 31.2719L40.7272 43.2719L43.2727 40.7265L31.2727 28.7265L28.7272 31.2719ZM31.2727 28.7265L19.2727 16.7264L16.7272 19.272L28.7272 31.2719L31.2727 28.7265Z" fill="black"/>
</svg>
