<svg width="60" height="60" viewBox="0 0 60 60" fill="none" xmlns="http://www.w3.org/2000/svg">
<path d="M52.5 25.0002C50.5 37.5 41.5 43.5 30.5 50.0002C18 45.5 12.5 37 7 25.0002C7 12.0215 20 6.00223 30 13.5009C38.5 6.0017 52.5 12.0215 52.5 25.0002Z" fill="#800020"/>
<path d="M39.25 10C47.175 10 52.5 17.45 52.5 24.4C52.5 38.475 30.4 50 30 50C29.6 50 7.5 38.475 7.5 24.4C7.5 17.45 12.825 10 20.75 10C25.3 10 28.275 12.275 30 14.275C31.725 12.275 34.7 10 39.25 10Z" stroke="#800020" stroke-width="2" stroke-linecap="round" stroke-linejoin="round"/>
</svg>
